<svg xmlns="http://www.w3.org/2000/svg" xmlns:xlink="http://www.w3.org/1999/xlink" width="660" zoomAndPan="magnify" viewBox="0 0 495.12 74.999997" height="100" preserveAspectRatio="xMidYMid meet" version="1.2"><defs><clipPath id="43bbab5d6b"><path d="M 33 20 L 175 20 L 175 74.933594 L 33 74.933594 Z M 33 20 "/></clipPath><clipPath id="8f4da992d1"><path d="M 134 0.199219 L 172 0.199219 L 172 17 L 134 17 Z M 134 0.199219 "/></clipPath><clipPath id="40033b18b0"><path d="M 57 0.199219 L 95 0.199219 L 95 17 L 57 17 Z M 57 0.199219 "/></clipPath><clipPath id="8eec4892a0"><path d="M 202 0.199219 L 207 0.199219 L 207 12 L 202 12 Z M 202 0.199219 "/></clipPath><clipPath id="a15940989a"><path d="M 222 0.199219 L 227 0.199219 L 227 11 L 222 11 Z M 222 0.199219 "/></clipPath></defs><g id="ded8790bec"><path style=" stroke:none;fill-rule:nonzero;fill:#3d1a08;fill-opacity:1;" d="M 490.777344 33.421875 C 490.113281 32.105469 489.832031 31.339844 489.378906 30.695312 C 486.0625 25.988281 482.738281 21.28125 479.347656 16.621094 C 478.191406 15.03125 478.394531 13 480.238281 10.640625 C 484.914062 15.722656 488.796875 21.371094 492.050781 27.394531 C 493.761719 30.558594 492.199219 33.769531 490.332031 36.449219 C 488.761719 38.699219 486.183594 39.714844 483.503906 39.332031 C 482.355469 39.167969 481.390625 37.726562 480.363281 36.882812 C 479.703125 37.804688 478.90625 39.199219 477.847656 40.351562 C 475.042969 43.390625 472.429688 42.789062 471.199219 38.78125 C 469.113281 40.984375 466.789062 42.71875 463.839844 43.4375 C 460.621094 44.226562 458.46875 43.101562 457.765625 40.507812 C 453.136719 41.941406 448.578125 43.738281 443.851562 44.742188 C 433.683594 46.898438 423.453125 48.796875 413.203125 50.515625 C 405.148438 51.867188 397.03125 52.886719 388.921875 53.882812 C 383.546875 54.542969 378.136719 54.953125 372.738281 55.378906 C 365.261719 55.96875 357.789062 56.675781 350.300781 56.953125 C 339.398438 57.355469 328.488281 57.632812 317.582031 57.558594 C 309.277344 57.5 300.972656 56.90625 292.679688 56.390625 C 281.917969 55.722656 271.160156 54.996094 260.621094 52.472656 C 259.925781 52.308594 259.066406 52.6875 258.441406 52.425781 C 257.015625 51.828125 255.6875 50.996094 254.0625 50.117188 C 252.40625 55.300781 248.566406 57.484375 242.367188 55.746094 C 243.128906 55.320312 243.652344 54.820312 244.230469 54.746094 C 248.464844 54.179688 251.433594 51.855469 253.363281 48.175781 C 254.71875 45.585938 255.78125 42.835938 257.152344 40.253906 C 258.800781 37.136719 259.707031 37.152344 261.933594 39.859375 C 263.511719 41.78125 263.679688 43.921875 263.285156 46.214844 C 263.199219 46.710938 263.066406 47.195312 262.882812 47.980469 C 266.570312 48.617188 270.109375 49.421875 273.6875 49.8125 C 293.84375 52.007812 314.058594 53.28125 334.335938 52.90625 C 344.480469 52.71875 354.617188 51.910156 364.75 51.289062 C 371.195312 50.894531 377.644531 50.464844 384.066406 49.808594 C 391.222656 49.074219 398.363281 48.171875 405.484375 47.144531 C 413.617188 45.96875 421.757812 44.769531 429.828125 43.21875 C 437.480469 41.75 445.074219 39.929688 452.636719 38.023438 C 455.105469 37.402344 457.371094 36.003906 459.75 35.007812 C 460.480469 34.703125 461.277344 34.554688 462.4375 34.226562 C 462.023438 35.695312 461.679688 36.914062 461.277344 38.355469 C 466.488281 40.039062 469.714844 36.636719 473.15625 33.484375 C 473.417969 34.394531 473.574219 34.929688 473.71875 35.464844 C 474.269531 37.492188 475.808594 38.222656 477.425781 36.921875 C 478.636719 35.945312 479.5 34.519531 480.441406 33.238281 C 481.03125 32.4375 481.472656 31.53125 482.082031 30.496094 C 483.304688 32.027344 482.945312 34.578125 485.148438 34.597656 C 486.894531 34.613281 488.644531 33.898438 490.777344 33.421875 Z M 258.035156 42.226562 C 256.265625 44.625 256.242188 45.132812 257.535156 46.464844 C 258.738281 47.707031 259.964844 47.886719 261.484375 46.796875 C 260.378906 45.332031 259.28125 43.878906 258.035156 42.226562 Z M 258.035156 42.226562 "/><g clip-rule="nonzero" clip-path="url(#43bbab5d6b)"><path style=" stroke:none;fill-rule:nonzero;fill:#3d1a08;fill-opacity:1;" d="M 148.542969 29.523438 C 147.914062 25.328125 150.578125 20.839844 153.78125 20.695312 C 155.128906 20.632812 156.546875 21.257812 157.867188 21.753906 C 161.953125 23.277344 165.980469 24.957031 170.082031 26.421875 C 171.40625 26.894531 172.898438 26.894531 174.765625 27.175781 C 174.210938 28.679688 173.859375 30.175781 173.089844 31.414062 C 172.8125 31.863281 171.53125 31.792969 170.710938 31.777344 C 167.488281 31.71875 164.261719 31.421875 161.046875 31.539062 C 158.910156 31.617188 156.792969 32.25 154.476562 32.667969 C 156.335938 36.546875 155.773438 39.929688 154.082031 43.265625 C 153.503906 44.398438 152.679688 44.855469 151.425781 44.683594 C 148.957031 44.34375 147.179688 43.050781 146.164062 41.089844 C 143.507812 42.679688 140.855469 44.265625 137.972656 45.988281 C 138.621094 50.351562 137.386719 54.722656 134.269531 58.269531 C 132.183594 60.648438 129.667969 62.886719 126.914062 64.40625 C 117.523438 69.601562 107.425781 72.808594 96.699219 73.769531 C 91.140625 74.265625 85.539062 74.9375 79.988281 74.726562 C 69.988281 74.339844 60.324219 72.175781 51.679688 66.789062 C 46.59375 63.617188 41.625 60.253906 36.640625 56.921875 C 35.570312 56.207031 34.667969 55.242188 33.6875 54.394531 C 33.84375 54.214844 33.996094 54.03125 34.152344 53.851562 C 34.511719 54.042969 34.921875 54.171875 35.222656 54.433594 C 44.761719 62.648438 56.449219 65.738281 68.359375 68.191406 C 72.859375 69.121094 77.453125 69.832031 82.035156 70.09375 C 86.039062 70.328125 90.097656 69.941406 94.109375 69.566406 C 101.265625 68.898438 108.4375 67.996094 115.179688 65.390625 C 120.347656 63.390625 125.304688 60.84375 130.324219 58.472656 C 131.1875 58.0625 131.914062 57.335938 132.652344 56.695312 C 136.28125 53.546875 136.804688 50.648438 134.5625 46.304688 C 133.703125 44.640625 134.492188 41.007812 136.019531 39.980469 C 136.292969 39.792969 136.839844 40.027344 137.261719 40.042969 C 138.59375 40.085938 140.027344 40.449219 141.238281 40.085938 C 144.089844 39.230469 146.042969 37.257812 147.601562 34.636719 C 148.578125 32.992188 150.261719 31.652344 151.871094 30.519531 C 153.636719 29.277344 155.683594 28.4375 158.066406 27.175781 C 156.019531 26.484375 154.253906 25.5625 152.402344 25.339844 C 149.761719 25.027344 149.917969 27.917969 148.542969 29.523438 Z M 148.835938 37.195312 C 149.785156 38.941406 151.363281 39.847656 153.140625 39.660156 C 152.8125 37.074219 151.671875 36.421875 148.835938 37.195312 Z M 148.835938 37.195312 "/></g><path style=" stroke:none;fill-rule:nonzero;fill:#3d1a08;fill-opacity:1;" d="M 69.808594 41.132812 C 56.167969 51.121094 41.078125 50.136719 25.507812 47.21875 C 24.90625 48.414062 24.171875 49.886719 23.429688 51.355469 C 22.757812 52.679688 21.675781 53.023438 20.402344 52.394531 C 18.683594 51.546875 17.027344 50.566406 15.332031 49.636719 C 11.492188 56.089844 6.683594 56.289062 0.347656 56.429688 C 0.996094 56.070312 1.265625 55.839844 1.578125 55.753906 C 8.792969 53.78125 14.347656 49.910156 16.84375 42.496094 C 17.300781 41.136719 17.785156 39.773438 18.453125 38.515625 C 18.671875 38.101562 19.683594 37.671875 20.046875 37.847656 C 21.734375 38.660156 23.261719 39.8125 24.960938 40.601562 C 27.226562 41.652344 29.523438 42.925781 31.9375 43.335938 C 41.449219 44.945312 51.027344 45.183594 60.308594 42.160156 C 63.835938 41.011719 66.992188 38.703125 70.308594 36.90625 C 70.796875 36.640625 71.242188 36.289062 71.367188 36.203125 C 72.425781 37.503906 73.191406 38.945312 74.386719 39.722656 C 75.160156 40.222656 76.675781 40.046875 77.664062 39.664062 C 80.808594 38.457031 83.855469 37.007812 87.125 35.574219 C 84.875 34.09375 82.890625 32.722656 80.835938 31.46875 C 79.292969 30.527344 78.257812 31 77.660156 32.679688 C 77.269531 33.78125 76.785156 34.847656 76.199219 36.277344 C 75.234375 33.007812 77.085938 27.992188 79.617188 26.757812 C 80.417969 26.367188 81.5625 26.652344 82.550781 26.695312 C 82.800781 26.703125 83.066406 26.945312 83.285156 27.128906 C 87.894531 31.003906 93.269531 32.464844 99.199219 32.191406 C 99.480469 32.175781 99.761719 32.238281 100.488281 32.308594 C 99.945312 33.828125 99.519531 35.21875 98.921875 36.527344 C 98.78125 36.835938 98.066406 37 97.605469 37.019531 C 93.183594 37.222656 89.027344 38.265625 85.097656 40.40625 C 82.4375 41.855469 79.621094 43.050781 76.804688 44.191406 C 73.199219 45.652344 71.203125 44.714844 69.808594 41.132812 Z M 18.371094 42.96875 C 17.644531 44.527344 17.898438 45.589844 19.285156 46.296875 C 20.097656 46.710938 20.886719 47.226562 21.75 47.484375 C 22.363281 47.667969 23.085938 47.496094 23.761719 47.480469 C 23.449219 46.820312 23.308594 45.917969 22.789062 45.542969 C 21.449219 44.585938 19.941406 43.859375 18.371094 42.96875 Z M 18.371094 42.96875 "/><path style=" stroke:none;fill-rule:nonzero;fill:#3d1a08;fill-opacity:1;" d="M 227.492188 26.238281 C 227.914062 28.34375 228.3125 30.457031 228.773438 32.554688 C 229.335938 35.125 229.726562 37.769531 230.609375 40.230469 C 231.492188 42.691406 233.539062 43.796875 235.6875 43.648438 C 236.996094 43.554688 237.636719 42.96875 237.242188 41.621094 C 235.90625 37.039062 234.554688 32.464844 233.210938 27.890625 C 232.632812 25.921875 233.195312 23.695312 234.917969 21.78125 C 236.472656 27.101562 238.140625 32.203125 239.414062 37.40625 C 240.101562 40.21875 239.0625 42.988281 237.75 45.539062 C 235.9375 49.0625 232.148438 49.472656 229.578125 46.429688 C 229.0625 45.820312 228.671875 45.097656 228.046875 44.164062 C 226.652344 47.433594 224.5 49.730469 220.925781 50.195312 C 216.769531 50.742188 215.199219 47.800781 213.953125 45.058594 C 212.296875 46.226562 210.792969 47.609375 209.03125 48.445312 C 206.234375 49.777344 204.363281 48.367188 204.480469 45.304688 C 204.628906 41.382812 208.15625 36.804688 211.964844 35.609375 C 212.175781 39.320312 209.363281 40.914062 206.410156 42.941406 C 207.410156 43.472656 208.019531 44.035156 208.679688 44.105469 C 211.191406 44.378906 213.3125 42.320312 213.101562 39.832031 C 212.839844 36.765625 212.699219 33.726562 214 30.828125 C 214.222656 30.332031 214.535156 29.875 215.238281 29.464844 C 215.238281 30.570312 215.253906 31.675781 215.234375 32.78125 C 215.175781 35.851562 215.265625 38.898438 216.613281 41.75 C 218.574219 45.882812 222.359375 46.726562 225.996094 43.96875 C 227.492188 42.835938 227.105469 41.363281 226.941406 40.023438 C 226.621094 37.40625 226.183594 34.78125 225.515625 32.230469 C 224.898438 29.886719 226.011719 28.160156 226.8125 26.273438 C 227.039062 26.261719 227.265625 26.25 227.492188 26.238281 Z M 227.492188 26.238281 "/><path style=" stroke:none;fill-rule:nonzero;fill:#3d1a08;fill-opacity:1;" d="M 181.625 2.4375 C 182.957031 3.992188 184.457031 5.3125 185.335938 6.964844 C 185.730469 7.703125 185.097656 9.226562 184.546875 10.171875 C 183.855469 11.355469 183.933594 12.371094 184.296875 13.574219 C 185.582031 17.804688 186.90625 22.03125 188.011719 26.3125 C 189.300781 31.289062 188.65625 36.128906 186.355469 40.722656 C 185.894531 41.640625 185.402344 42.699219 184.617188 43.257812 C 183.148438 44.296875 183.074219 45.574219 182.945312 47.199219 C 182.507812 52.679688 180.570312 57.542969 175.746094 60.667969 C 172.871094 62.53125 169.496094 62.40625 166.207031 62.261719 C 165.289062 62.222656 164.378906 62.03125 163.375 61.59375 C 164.074219 61.378906 164.761719 61.105469 165.476562 60.957031 C 169.691406 60.097656 173.523438 58.382812 177.085938 55.980469 C 181.378906 53.082031 181.542969 50.347656 179.574219 44.929688 C 178.574219 42.179688 178.554688 40.050781 180.503906 37.453125 C 180.644531 37.632812 180.839844 37.769531 180.882812 37.945312 C 181.167969 39.097656 181.417969 40.226562 183.011719 40.152344 C 184.605469 40.078125 185.863281 39.214844 186.019531 37.796875 C 186.265625 35.554688 186.367188 33.167969 185.867188 31 C 184.75 26.191406 183.121094 21.503906 181.902344 16.71875 C 181.242188 14.117188 181.28125 11.320312 180.464844 8.78125 C 179.816406 6.765625 180.035156 5.121094 180.910156 3.382812 C 181.054688 3.097656 181.300781 2.859375 181.625 2.4375 Z M 181.625 2.4375 "/><path style=" stroke:none;fill-rule:nonzero;fill:#3d1a08;fill-opacity:1;" d="M 91.34375 61.109375 C 92.484375 60.828125 93.628906 60.539062 94.773438 60.269531 C 98.96875 59.273438 102.71875 57.363281 106.144531 54.773438 C 109.339844 52.355469 109.25 48.867188 107.449219 44.546875 C 106.273438 41.734375 106.820312 39.476562 108.324219 37.0625 C 108.539062 37.261719 108.734375 37.351562 108.765625 37.480469 C 109.0625 38.679688 109.28125 39.921875 110.976562 39.800781 C 112.628906 39.683594 113.59375 38.761719 114.046875 37.238281 C 114.871094 34.449219 114.179688 31.734375 113.480469 29.074219 C 112.089844 23.800781 110.480469 18.578125 109.082031 13.304688 C 108.488281 11.054688 107.964844 8.734375 107.863281 6.425781 C 107.800781 5.046875 108.621094 3.628906 109.046875 2.226562 C 109.242188 2.191406 109.433594 2.160156 109.625 2.125 C 110.335938 3.027344 111.015625 3.960938 111.765625 4.832031 C 113.714844 7.109375 113.804688 7.316406 112.378906 10.042969 C 111.855469 11.042969 111.804688 11.917969 112.113281 12.949219 C 113.421875 17.296875 114.816406 21.621094 115.9375 26.015625 C 117.234375 31.113281 116.546875 36.054688 114.074219 40.722656 C 113.886719 41.078125 113.765625 41.550781 113.46875 41.753906 C 110.761719 43.613281 111.039062 46.542969 110.53125 49.285156 C 109.71875 53.695312 107.816406 57.597656 103.898438 60.15625 C 100.945312 62.085938 97.585938 62.058594 94.238281 61.925781 C 93.277344 61.886719 92.320312 61.679688 91.363281 61.554688 C 91.355469 61.40625 91.347656 61.257812 91.34375 61.109375 Z M 91.34375 61.109375 "/><path style=" stroke:none;fill-rule:nonzero;fill:#3d1a08;fill-opacity:1;" d="M 196.890625 45.289062 C 195.605469 32.640625 191.863281 20.996094 189.699219 9.042969 C 189.238281 6.496094 189.636719 4.339844 191.324219 1.867188 C 191.65625 3.503906 191.902344 4.746094 192.167969 5.984375 C 194.257812 15.691406 196.421875 25.378906 198.402344 35.105469 C 198.972656 37.90625 199.242188 40.828125 197.847656 43.5625 C 197.601562 44.046875 197.324219 44.511719 196.890625 45.289062 Z M 196.890625 45.289062 "/><path style=" stroke:none;fill-rule:nonzero;fill:#3d1a08;fill-opacity:1;" d="M 119.339844 1.972656 C 119.949219 4.929688 120.535156 7.894531 121.171875 10.84375 C 122.886719 18.8125 124.703125 26.757812 126.308594 34.746094 C 126.871094 37.546875 127.15625 40.464844 125.765625 43.203125 C 125.582031 43.5625 125.40625 43.921875 125.195312 44.261719 C 125.113281 44.390625 124.945312 44.464844 124.59375 44.738281 C 124.472656 42.933594 124.546875 41.277344 124.226562 39.703125 C 122.921875 33.289062 121.46875 26.90625 120.117188 20.503906 C 119.191406 16.125 118.359375 11.722656 117.445312 7.339844 C 117.003906 5.238281 118.03125 3.621094 118.875 1.929688 C 119.03125 1.945312 119.183594 1.957031 119.339844 1.972656 Z M 119.339844 1.972656 "/><path style=" stroke:none;fill-rule:nonzero;fill:#3d1a08;fill-opacity:1;" d="M 245.964844 43.621094 C 243.488281 32.492188 241.011719 21.421875 238.5625 10.34375 C 238.195312 8.683594 238.992188 6.304688 240.417969 4.722656 C 241.015625 7.425781 241.578125 10.027344 242.167969 12.625 C 243.640625 19.121094 245.15625 25.601562 246.585938 32.105469 C 247.003906 34.007812 247.207031 35.960938 247.457031 37.898438 C 247.734375 40.054688 246.949219 41.921875 245.964844 43.621094 Z M 245.964844 43.621094 "/><g clip-rule="nonzero" clip-path="url(#8f4da992d1)"><path style=" stroke:none;fill-rule:nonzero;fill:#3d1a08;fill-opacity:1;" d="M 134.078125 16.289062 C 133.988281 14.8125 134.917969 13.992188 136.117188 13.460938 C 141.25 11.183594 146.308594 8.695312 151.570312 6.765625 C 157.6875 4.527344 163.988281 2.789062 170.214844 0.84375 C 170.46875 0.761719 170.75 0.785156 171.195312 0.742188 C 171.273438 2.773438 170.128906 4.085938 169.195312 5.492188 C 169.054688 5.449219 168.914062 5.402344 168.773438 5.359375 C 168.984375 4.652344 169.195312 3.949219 169.53125 2.835938 C 157.070312 5.960938 145.414062 10.496094 134.078125 16.289062 Z M 134.078125 16.289062 "/></g><g clip-rule="nonzero" clip-path="url(#40033b18b0)"><path style=" stroke:none;fill-rule:nonzero;fill:#3d1a08;fill-opacity:1;" d="M 57.472656 16.289062 C 57.421875 14.769531 58.367188 13.953125 59.574219 13.433594 C 65.78125 10.761719 71.9375 7.945312 78.246094 5.535156 C 83.464844 3.539062 88.875 2.039062 94.578125 0.199219 C 94.703125 2.757812 93.515625 4.082031 92.601562 5.519531 C 92.46875 5.472656 92.332031 5.425781 92.195312 5.378906 C 92.402344 4.652344 92.605469 3.925781 92.917969 2.835938 C 80.457031 5.96875 68.785156 10.515625 57.472656 16.289062 Z M 57.472656 16.289062 "/></g><path style=" stroke:none;fill-rule:nonzero;fill:#3d1a08;fill-opacity:1;" d="M 71.128906 50.324219 C 72.261719 51.335938 73.257812 52.179688 74.191406 53.089844 C 74.386719 53.277344 74.492188 53.746094 74.40625 54.011719 C 73.984375 55.300781 73.488281 56.5625 72.90625 58.136719 C 71.726562 57.179688 70.816406 56.445312 69.917969 55.71875 C 69.191406 56.679688 68.53125 57.617188 67.792969 58.488281 C 67.519531 58.816406 67.082031 59.148438 66.683594 59.199219 C 65.601562 59.339844 62.839844 56.175781 63.132812 55.09375 C 63.457031 53.898438 63.980469 52.75 64.542969 51.25 C 65.890625 52.5 66.992188 53.515625 68.285156 54.710938 C 69.28125 53.175781 70.164062 51.816406 71.128906 50.324219 Z M 71.128906 50.324219 "/><path style=" stroke:none;fill-rule:nonzero;fill:#3d1a08;fill-opacity:1;" d="M 203.992188 29.496094 C 204.015625 26.132812 207.066406 26.316406 209.210938 25.15625 C 207.421875 24.390625 207.128906 23.132812 207.640625 21.539062 C 207.8125 21.003906 207.855469 20.421875 207.949219 19.863281 C 208.363281 17.378906 210.09375 16.332031 212.472656 17.125 C 215.332031 18.078125 215.992188 21.070312 213.558594 23.234375 C 211.332031 25.214844 209.34375 27.65625 206.125 28.273438 C 205.398438 28.414062 204.769531 29.035156 203.992188 29.496094 Z M 210.691406 23.148438 C 210.921875 22.863281 211.152344 22.578125 211.382812 22.292969 C 210.835938 21.816406 210.328125 21.277344 209.714844 20.914062 C 209.609375 20.851562 209.066406 21.527344 208.726562 21.863281 C 209.382812 22.289062 210.039062 22.71875 210.691406 23.148438 Z M 212.359375 19.277344 C 212.25 19.355469 212.140625 19.429688 212.035156 19.503906 C 212.21875 20.386719 212.40625 21.265625 212.59375 22.148438 C 213.230469 21.769531 213.78125 21.175781 213.660156 20.820312 C 213.453125 20.226562 212.816406 19.785156 212.359375 19.277344 Z M 212.359375 19.277344 "/><path style=" stroke:none;fill-rule:nonzero;fill:#3d1a08;fill-opacity:1;" d="M 462.6875 53.273438 C 462.425781 54.113281 462.257812 55 461.878906 55.78125 C 460.917969 57.777344 460.113281 57.835938 458.648438 56.046875 C 458.050781 56.320312 457.449219 56.796875 456.820312 56.839844 C 455.859375 56.90625 454.6875 56.980469 453.941406 56.511719 C 452.425781 55.558594 451.125 55.644531 449.558594 56.3125 C 445.441406 58.074219 441.269531 59.707031 437.109375 61.375 C 436.703125 61.539062 436.246094 61.578125 435.691406 61.363281 C 436.328125 61.058594 436.96875 60.757812 437.605469 60.441406 C 441.625 58.441406 445.648438 56.457031 449.652344 54.429688 C 451.488281 53.5 453.1875 53.269531 454.980469 54.632812 C 455.492188 55.019531 456.503906 54.96875 457.214844 54.804688 C 457.96875 54.636719 458.632812 54.09375 459.4375 53.65625 C 459.851562 54.199219 460.277344 54.757812 460.832031 55.484375 C 461.398438 54.582031 461.859375 53.847656 462.320312 53.117188 C 462.441406 53.167969 462.566406 53.222656 462.6875 53.273438 Z M 462.6875 53.273438 "/><path style=" stroke:none;fill-rule:nonzero;fill:#3d1a08;fill-opacity:1;" d="M 18.714844 23.796875 C 18.230469 23.496094 17.859375 23.269531 17 22.742188 C 16.421875 25.570312 15.890625 28.167969 15.257812 31.273438 C 14.058594 29.324219 13.132812 27.820312 12.027344 26.023438 C 11.660156 26.773438 11.578125 27.222656 11.308594 27.433594 C 10.695312 27.914062 9.796875 28.761719 9.363281 28.589844 C 8.660156 28.308594 7.78125 27.316406 7.796875 26.644531 C 7.820312 25.675781 8.34375 24.40625 9.089844 23.863281 C 9.722656 23.398438 11.144531 23.449219 11.914062 23.851562 C 13.070312 24.457031 13.96875 25.566406 14.964844 26.453125 C 15.445312 25.125 15.84375 23.710938 16.464844 22.398438 C 16.839844 21.609375 17.25 20.386719 18.597656 21.109375 C 19.898438 21.800781 19.195312 22.71875 18.714844 23.796875 Z M 18.714844 23.796875 "/><path style=" stroke:none;fill-rule:nonzero;fill:#3d1a08;fill-opacity:1;" d="M 256.714844 21.601562 C 257.554688 15.476562 258.117188 14.476562 260.863281 14.867188 C 260.402344 15.546875 260.097656 16.488281 259.65625 16.5625 C 258.269531 16.785156 258.1875 17.660156 258.195312 18.691406 C 258.203125 20.246094 258.308594 21.808594 258.230469 23.359375 C 258.183594 24.210938 257.84375 25.046875 257.609375 26 C 256.03125 24.253906 254.671875 22.746094 253.316406 21.242188 C 252.371094 22.363281 251.675781 23.183594 250.941406 24.054688 C 249.820312 22.644531 249.945312 20.910156 251.011719 19.828125 C 252.351562 18.476562 253.46875 18.808594 256.714844 21.601562 Z M 256.714844 21.601562 "/><path style=" stroke:none;fill-rule:nonzero;fill:#3d1a08;fill-opacity:1;" d="M 262.101562 56.738281 C 261.667969 57.414062 261.390625 58.351562 260.773438 58.726562 C 255.726562 61.804688 250.617188 64.777344 245.523438 67.769531 C 245.394531 67.847656 245.195312 67.800781 244.453125 67.855469 C 245.164062 66.90625 245.515625 66.039062 246.160156 65.648438 C 251.152344 62.605469 256.207031 59.652344 261.242188 56.679688 C 261.382812 56.59375 261.539062 56.535156 261.6875 56.46875 C 261.824219 56.558594 261.960938 56.648438 262.101562 56.738281 Z M 262.101562 56.738281 "/><path style=" stroke:none;fill-rule:nonzero;fill:#3d1a08;fill-opacity:1;" d="M 149.121094 56.773438 C 148.667969 57.449219 148.375 58.378906 147.746094 58.761719 C 142.746094 61.804688 137.6875 64.746094 132.640625 67.707031 C 132.46875 67.808594 132.230469 67.796875 131.6875 67.546875 C 132.144531 66.921875 132.464844 66.082031 133.074219 65.710938 C 138.117188 62.640625 143.214844 59.65625 148.300781 56.648438 C 148.441406 56.566406 148.605469 56.53125 148.761719 56.476562 C 148.878906 56.574219 149 56.671875 149.121094 56.773438 Z M 149.121094 56.773438 "/><path style=" stroke:none;fill-rule:nonzero;fill:#3d1a08;fill-opacity:1;" d="M 26.425781 56.753906 C 25.984375 57.429688 25.703125 58.363281 25.078125 58.742188 C 20.082031 61.785156 15.023438 64.726562 9.976562 67.691406 C 9.796875 67.792969 9.5625 67.796875 9 67.542969 C 9.496094 66.894531 9.855469 66.027344 10.503906 65.632812 C 15.453125 62.625 20.457031 59.707031 25.441406 56.761719 C 25.628906 56.648438 25.824219 56.546875 26.015625 56.4375 C 26.152344 56.542969 26.289062 56.648438 26.425781 56.753906 Z M 26.425781 56.753906 "/><path style=" stroke:none;fill-rule:nonzero;fill:#3d1a08;fill-opacity:1;" d="M 202.023438 66.089844 C 202.515625 65.46875 202.882812 64.648438 203.519531 64.261719 C 208.46875 61.257812 213.46875 58.335938 218.457031 55.390625 C 218.675781 55.261719 218.921875 55.179688 219.46875 55.347656 C 219.039062 56.023438 218.765625 56.957031 218.152344 57.332031 C 213.105469 60.410156 208 63.382812 202.90625 66.378906 C 202.773438 66.457031 202.574219 66.417969 202.40625 66.433594 C 202.277344 66.320312 202.148438 66.203125 202.023438 66.089844 Z M 202.023438 66.089844 "/><path style=" stroke:none;fill-rule:nonzero;fill:#3d1a08;fill-opacity:1;" d="M 474.242188 65.585938 C 474.929688 64.75 475.320312 63.9375 475.96875 63.546875 C 480.917969 60.542969 485.921875 57.621094 490.910156 54.675781 C 491.097656 54.566406 491.292969 54.464844 491.859375 54.601562 C 491.46875 55.269531 491.246094 56.207031 490.664062 56.5625 C 485.515625 59.683594 480.304688 62.703125 475.105469 65.742188 C 475.035156 65.785156 474.894531 65.707031 474.242188 65.585938 Z M 474.242188 65.585938 "/><path style=" stroke:none;fill-rule:nonzero;fill:#3d1a08;fill-opacity:1;" d="M 166.003906 44.011719 C 164.832031 44.527344 163.785156 44.988281 162.816406 45.414062 C 162.613281 42.632812 165 41.507812 169.046875 43.039062 C 168.34375 43.996094 167.714844 44.867188 167.0625 45.726562 C 166.964844 45.859375 166.722656 45.894531 166.648438 46.027344 C 166.183594 46.835938 165.75 47.660156 165.308594 48.476562 C 166.378906 48.394531 167.503906 48.484375 168.5 48.164062 C 169.109375 47.96875 169.515625 47.148438 170.113281 46.503906 C 170.226562 49.242188 167.480469 51.59375 165.167969 50.792969 C 164.597656 50.59375 163.867188 49.421875 164.003906 48.898438 C 164.402344 47.347656 165.195312 45.898438 166.003906 44.011719 Z M 166.003906 44.011719 "/><path style=" stroke:none;fill-rule:nonzero;fill:#3d1a08;fill-opacity:1;" d="M 99.640625 17.648438 C 100.464844 18.289062 100.953125 18.808594 101.550781 19.085938 C 101.953125 19.269531 102.507812 19.113281 102.996094 19.109375 C 102.984375 18.648438 103.105469 18.128906 102.9375 17.734375 C 102.339844 16.34375 102.300781 16.359375 103.144531 14.976562 C 104.828125 16.585938 105.023438 18.566406 103.671875 20.359375 C 102.699219 21.65625 101.625 21.679688 99.375 20.425781 C 98.976562 21.101562 98.703125 21.925781 98.140625 22.417969 C 97.558594 22.925781 96.574219 23.515625 95.988281 23.339844 C 95.273438 23.125 94.394531 22.191406 94.304688 21.480469 C 94.144531 20.210938 94.523438 18.871094 94.679688 17.5625 C 94.894531 17.574219 95.109375 17.585938 95.324219 17.597656 C 95.324219 18.230469 95.140625 18.9375 95.371094 19.472656 C 95.675781 20.183594 96.207031 20.90625 96.84375 21.304688 C 97.050781 21.433594 98.007812 20.648438 98.402344 20.121094 C 98.898438 19.457031 99.167969 18.625 99.640625 17.648438 Z M 99.640625 17.648438 "/><path style=" stroke:none;fill-rule:nonzero;fill:#3d1a08;fill-opacity:1;" d="M 488.332031 49.902344 C 484.566406 47.148438 484.261719 45.808594 486.507812 42.292969 C 490.210938 43.75 490.882812 46.414062 488.332031 49.902344 Z M 488.332031 49.902344 "/><path style=" stroke:none;fill-rule:nonzero;fill:#3d1a08;fill-opacity:1;" d="M 93.570312 44.121094 C 92.371094 46.167969 91.308594 47.980469 90.195312 49.878906 C 92.214844 50.699219 92.980469 49.164062 94.070312 48.363281 C 94.339844 50.445312 91.933594 52.816406 90.089844 52.1875 C 89.625 52.03125 89.25 50.984375 89.222656 50.332031 C 89.195312 49.636719 89.570312 48.894531 89.882812 48.226562 C 90.195312 47.558594 90.644531 46.953125 90.835938 46.003906 C 90.023438 46.53125 89.210938 47.0625 88.453125 47.554688 C 88.449219 44.996094 89.988281 43.796875 93.570312 44.121094 Z M 93.570312 44.121094 "/><path style=" stroke:none;fill-rule:nonzero;fill:#3d1a08;fill-opacity:1;" d="M 120.316406 53.519531 C 119.230469 52.59375 118.121094 51.84375 117.308594 50.851562 C 116.984375 50.453125 117.15625 49.457031 117.390625 48.839844 C 117.738281 47.925781 118.335938 47.109375 118.828125 46.253906 C 119.644531 46.851562 120.550781 47.359375 121.253906 48.070312 C 122.5 49.332031 122.164062 51.175781 120.316406 53.519531 Z M 120.316406 53.519531 "/><path style=" stroke:none;fill-rule:nonzero;fill:#3d1a08;fill-opacity:1;" d="M 176.050781 16.132812 C 176.285156 15.207031 176.492188 14.363281 176.765625 13.269531 C 177.964844 15.234375 178.121094 17.25 176.957031 18.125 C 176.375 18.566406 175.1875 18.203125 174.203125 18.203125 C 173.472656 18.929688 172.574219 19.945312 171.53125 20.78125 C 171.183594 21.058594 170.3125 21.082031 169.960938 20.828125 C 169.621094 20.589844 169.425781 19.785156 169.546875 19.332031 C 169.859375 18.15625 170.386719 17.039062 170.828125 15.898438 C 170.996094 15.953125 171.164062 16.011719 171.335938 16.066406 C 171.125 16.964844 170.914062 17.859375 170.65625 18.953125 C 173.195312 19 173.359375 16.664062 174.636719 15.363281 C 175.105469 15.617188 175.574219 15.871094 176.050781 16.132812 Z M 176.050781 16.132812 "/><path style=" stroke:none;fill-rule:nonzero;fill:#3d1a08;fill-opacity:1;" d="M 226.824219 14.386719 C 228.480469 17.078125 228.496094 17.078125 230.898438 13.957031 C 231.417969 15.394531 231.050781 17.132812 229.972656 17.882812 C 228.75 18.734375 227.511719 18.675781 226.371094 17.632812 C 225.371094 18.550781 224.933594 20.542969 223.050781 19.5 C 222.117188 18.984375 222.375 16.546875 223.335938 15.347656 C 223.375 15.371094 223.441406 15.386719 223.453125 15.421875 C 223.761719 16.167969 224.066406 16.914062 224.371094 17.660156 C 224.945312 16.957031 225.53125 16.261719 226.09375 15.542969 C 226.332031 15.234375 226.511719 14.882812 226.824219 14.386719 Z M 226.824219 14.386719 "/><path style=" stroke:none;fill-rule:nonzero;fill:#3d1a08;fill-opacity:1;" d="M 41.582031 5.695312 C 38.972656 3.828125 38.410156 3.921875 36.617188 6.230469 C 36.402344 4.898438 36.84375 3.328125 38.027344 2.816406 C 38.898438 2.441406 40.140625 2.488281 41.0625 2.800781 C 41.925781 3.097656 43.304688 4.183594 43.199219 4.582031 C 42.917969 5.609375 42.113281 6.703125 41.207031 7.296875 C 40.070312 8.042969 38.628906 8.3125 37.316406 8.789062 C 37.234375 8.609375 37.148438 8.429688 37.066406 8.253906 C 38.507812 7.4375 39.949219 6.621094 41.582031 5.695312 Z M 41.582031 5.695312 "/><path style=" stroke:none;fill-rule:nonzero;fill:#3d1a08;fill-opacity:1;" d="M 137.910156 21.4375 C 141.730469 22.894531 143.742188 27.566406 141.804688 30.867188 C 141.683594 30.269531 141.585938 29.871094 141.519531 29.464844 C 141.164062 27.21875 140.261719 25.253906 138.277344 24.023438 C 137.078125 23.277344 137.074219 22.515625 137.910156 21.4375 Z M 137.910156 21.4375 "/><path style=" stroke:none;fill-rule:nonzero;fill:#3d1a08;fill-opacity:1;" d="M 130.050781 2.105469 C 129.636719 4.050781 129.214844 5.996094 128.816406 7.945312 C 128.734375 8.335938 128.59375 8.804688 128.726562 9.132812 C 129.039062 9.886719 129.363281 10.765625 129.960938 11.210938 C 130.273438 11.445312 131.1875 10.867188 131.777344 10.671875 C 131.804688 12.226562 131.046875 13.390625 129.824219 13.449219 C 128.570312 13.511719 127.582031 12.410156 127.574219 10.707031 C 127.5625 7.636719 128.222656 4.714844 130.050781 2.105469 Z M 130.050781 2.105469 "/><path style=" stroke:none;fill-rule:nonzero;fill:#3d1a08;fill-opacity:1;" d="M 49.5 24.25 C 49.035156 26.121094 48.464844 27.976562 48.152344 29.871094 C 48.015625 30.710938 48.113281 32.019531 48.632812 32.410156 C 49.148438 32.800781 50.332031 32.304688 51.257812 32.195312 C 51.214844 33.148438 50.875 34.40625 49.351562 34.796875 C 48.148438 35.105469 46.945312 34.625 46.851562 33.351562 C 46.613281 30.039062 47.433594 26.929688 49.5 24.25 Z M 49.5 24.25 "/><g clip-rule="nonzero" clip-path="url(#8eec4892a0)"><path style=" stroke:none;fill-rule:nonzero;fill:#3d1a08;fill-opacity:1;" d="M 204.988281 0.503906 C 204.558594 2.386719 204.121094 4.265625 203.703125 6.148438 C 203.605469 6.59375 203.492188 7.050781 203.5 7.503906 C 203.527344 9.582031 204.640625 10.199219 206.578125 9.09375 C 206.386719 10.46875 206.183594 11.78125 204.519531 11.789062 C 202.890625 11.792969 202.449219 10.589844 202.378906 9.191406 C 202.269531 6.925781 203.46875 2.253906 204.988281 0.503906 Z M 204.988281 0.503906 "/></g><path style=" stroke:none;fill-rule:nonzero;fill:#3d1a08;fill-opacity:1;" d="M 462.046875 19.101562 C 463.015625 18.664062 463.980469 18.230469 464.949219 17.792969 C 463.140625 16.960938 461.558594 16.910156 460.226562 18.828125 C 460.164062 17.171875 460.492188 15.847656 461.878906 15.578125 C 463.320312 15.296875 464.871094 15.566406 466.375 15.597656 C 466.308594 16.304688 466.503906 17.355469 466.117188 17.652344 C 464.996094 18.519531 463.644531 19.082031 462.378906 19.761719 C 462.269531 19.539062 462.15625 19.320312 462.046875 19.101562 Z M 462.046875 19.101562 "/><g clip-rule="nonzero" clip-path="url(#a15940989a)"><path style=" stroke:none;fill-rule:nonzero;fill:#3d1a08;fill-opacity:1;" d="M 223.304688 0.386719 C 226.085938 2.695312 227.558594 8.664062 225.792969 10.964844 C 225.535156 9.675781 225.425781 8.480469 225.050781 7.375 C 224.554688 5.917969 224.03125 4.414062 223.183594 3.152344 C 222.433594 2.039062 222.65625 1.300781 223.304688 0.386719 Z M 223.304688 0.386719 "/></g></g></svg>