<svg xmlns="http://www.w3.org/2000/svg" xmlns:xlink="http://www.w3.org/1999/xlink" width="660" zoomAndPan="magnify" viewBox="0 0 495 74.999997" height="100" preserveAspectRatio="xMidYMid meet" version="1.2"><defs><clipPath id="b2ba334516"><path d="M 134 0.132812 L 172 0.132812 L 172 17 L 134 17 Z M 134 0.132812 "/></clipPath><clipPath id="2f98b7e784"><path d="M 57 0.132812 L 95 0.132812 L 95 17 L 57 17 Z M 57 0.132812 "/></clipPath><clipPath id="65a0d6e838"><path d="M 202 0.132812 L 207 0.132812 L 207 12 L 202 12 Z M 202 0.132812 "/></clipPath><clipPath id="e2957a7004"><path d="M 223 0.132812 L 227 0.132812 L 227 11 L 223 11 Z M 223 0.132812 "/></clipPath></defs><g id="61bb0fe900"><path style=" stroke:none;fill-rule:nonzero;fill:#000000;fill-opacity:1;" d="M 491.648438 33.476562 C 490.984375 32.15625 490.703125 31.386719 490.25 30.742188 C 486.925781 26.015625 483.59375 21.292969 480.199219 16.617188 C 479.042969 15.019531 479.242188 12.980469 481.09375 10.613281 C 485.773438 15.714844 489.664062 21.382812 492.925781 27.429688 C 494.636719 30.605469 493.074219 33.828125 491.203125 36.515625 C 489.632812 38.773438 487.046875 39.792969 484.363281 39.40625 C 483.214844 39.242188 482.25 37.796875 481.214844 36.949219 C 480.554688 37.875 479.757812 39.277344 478.695312 40.429688 C 475.886719 43.480469 473.269531 42.878906 472.039062 38.855469 C 469.945312 41.070312 467.617188 42.808594 464.664062 43.53125 C 461.4375 44.320312 459.285156 43.191406 458.578125 40.589844 C 453.941406 42.027344 449.375 43.832031 444.640625 44.839844 C 434.453125 47.003906 424.207031 48.90625 413.9375 50.632812 C 405.867188 51.992188 397.738281 53.015625 389.613281 54.011719 C 384.230469 54.675781 378.8125 55.085938 373.398438 55.515625 C 365.910156 56.105469 358.425781 56.816406 350.921875 57.09375 C 340.003906 57.5 329.070312 57.773438 318.148438 57.699219 C 309.828125 57.644531 301.507812 57.046875 293.199219 56.53125 C 282.421875 55.859375 271.640625 55.128906 261.082031 52.597656 C 260.390625 52.433594 259.527344 52.8125 258.902344 52.550781 C 257.472656 51.953125 256.140625 51.113281 254.515625 50.234375 C 252.851562 55.433594 249.007812 57.628906 242.796875 55.882812 C 243.5625 55.457031 244.082031 54.953125 244.664062 54.878906 C 248.90625 54.3125 251.878906 51.976562 253.8125 48.285156 C 255.171875 45.683594 256.234375 42.925781 257.609375 40.332031 C 259.261719 37.207031 260.167969 37.222656 262.398438 39.9375 C 263.980469 41.867188 264.148438 44.015625 263.753906 46.316406 C 263.667969 46.8125 263.53125 47.300781 263.351562 48.089844 C 267.042969 48.726562 270.585938 49.535156 274.175781 49.925781 C 294.363281 52.128906 314.617188 53.410156 334.929688 53.035156 C 345.09375 52.84375 355.246094 52.03125 365.398438 51.410156 C 371.855469 51.015625 378.316406 50.585938 384.75 49.921875 C 391.917969 49.1875 399.074219 48.28125 406.207031 47.25 C 414.355469 46.070312 422.507812 44.863281 430.589844 43.3125 C 438.257812 41.835938 445.867188 40.007812 453.441406 38.097656 C 455.914062 37.472656 458.183594 36.070312 460.566406 35.070312 C 461.300781 34.761719 462.097656 34.617188 463.257812 34.285156 C 462.84375 35.757812 462.5 36.980469 462.09375 38.425781 C 467.316406 40.117188 470.550781 36.703125 473.996094 33.539062 C 474.257812 34.453125 474.417969 34.988281 474.5625 35.527344 C 475.109375 37.5625 476.65625 38.292969 478.273438 36.988281 C 479.484375 36.007812 480.351562 34.582031 481.296875 33.292969 C 481.882812 32.492188 482.328125 31.582031 482.9375 30.539062 C 484.164062 32.078125 483.804688 34.640625 486.007812 34.65625 C 487.757812 34.671875 489.511719 33.957031 491.648438 33.476562 Z M 258.496094 42.3125 C 256.71875 44.722656 256.695312 45.230469 257.992188 46.570312 C 259.199219 47.8125 260.425781 47.996094 261.949219 46.898438 C 260.84375 45.433594 259.742188 43.972656 258.496094 42.3125 Z M 258.496094 42.3125 "/><path style=" stroke:none;fill-rule:nonzero;fill:#000000;fill-opacity:1;" d="M 148.808594 29.5625 C 148.179688 25.351562 150.84375 20.847656 154.054688 20.703125 C 155.402344 20.644531 156.824219 21.269531 158.148438 21.765625 C 162.238281 23.292969 166.273438 24.980469 170.386719 26.453125 C 171.710938 26.925781 173.207031 26.925781 175.078125 27.210938 C 174.519531 28.71875 174.167969 30.222656 173.398438 31.464844 C 173.121094 31.910156 171.835938 31.839844 171.015625 31.824219 C 167.785156 31.765625 164.550781 31.46875 161.332031 31.585938 C 159.191406 31.664062 157.070312 32.300781 154.75 32.722656 C 156.613281 36.613281 156.050781 40.011719 154.355469 43.355469 C 153.777344 44.496094 152.949219 44.953125 151.695312 44.78125 C 149.222656 44.4375 147.441406 43.140625 146.425781 41.171875 C 143.765625 42.765625 141.105469 44.359375 138.21875 46.089844 C 138.867188 50.46875 137.628906 54.855469 134.507812 58.417969 C 132.417969 60.804688 129.898438 63.046875 127.140625 64.578125 C 117.734375 69.789062 107.617188 73.011719 96.871094 73.972656 C 91.304688 74.472656 85.691406 75.144531 80.128906 74.929688 C 70.113281 74.546875 60.429688 72.371094 51.773438 66.964844 C 46.675781 63.78125 41.699219 60.40625 36.707031 57.0625 C 35.632812 56.34375 34.730469 55.378906 33.75 54.527344 C 33.902344 54.34375 34.058594 54.164062 34.214844 53.984375 C 34.574219 54.171875 34.984375 54.304688 35.285156 54.5625 C 44.839844 62.8125 56.550781 65.910156 68.480469 68.375 C 72.992188 69.304688 77.589844 70.019531 82.179688 70.285156 C 86.191406 70.515625 90.257812 70.132812 94.273438 69.753906 C 101.445312 69.082031 108.628906 68.179688 115.382812 65.5625 C 120.5625 63.558594 125.527344 61 130.554688 58.617188 C 131.421875 58.207031 132.148438 57.480469 132.886719 56.835938 C 136.523438 53.675781 137.046875 50.765625 134.800781 46.40625 C 133.941406 44.734375 134.734375 41.089844 136.261719 40.058594 C 136.535156 39.875 137.082031 40.109375 137.503906 40.121094 C 138.839844 40.164062 140.273438 40.527344 141.488281 40.164062 C 144.347656 39.304688 146.304688 37.328125 147.863281 34.699219 C 148.84375 33.046875 150.527344 31.699219 152.140625 30.566406 C 153.910156 29.320312 155.960938 28.472656 158.347656 27.210938 C 156.296875 26.515625 154.527344 25.589844 152.671875 25.367188 C 150.027344 25.050781 150.1875 27.953125 148.808594 29.5625 Z M 149.097656 37.261719 C 150.050781 39.019531 151.632812 39.925781 153.414062 39.738281 C 153.085938 37.140625 151.945312 36.488281 149.097656 37.261719 Z M 149.097656 37.261719 "/><path style=" stroke:none;fill-rule:nonzero;fill:#000000;fill-opacity:1;" d="M 69.929688 41.214844 C 56.269531 51.242188 41.148438 50.253906 25.550781 47.324219 C 24.949219 48.527344 24.214844 50.003906 23.46875 51.476562 C 22.800781 52.804688 21.714844 53.148438 20.441406 52.519531 C 18.71875 51.667969 17.058594 50.683594 15.359375 49.75 C 11.511719 56.230469 6.695312 56.429688 0.347656 56.570312 C 0.996094 56.207031 1.269531 55.976562 1.582031 55.890625 C 8.808594 53.910156 14.371094 50.023438 16.875 42.582031 C 17.332031 41.222656 17.816406 39.851562 18.484375 38.589844 C 18.707031 38.175781 19.71875 37.746094 20.082031 37.917969 C 21.773438 38.734375 23.304688 39.890625 25.003906 40.679688 C 27.277344 41.738281 29.574219 43.015625 31.992188 43.425781 C 41.523438 45.042969 51.121094 45.28125 60.414062 42.246094 C 63.949219 41.09375 67.109375 38.777344 70.433594 36.976562 C 70.925781 36.707031 71.367188 36.351562 71.492188 36.269531 C 72.554688 37.574219 73.320312 39.019531 74.519531 39.800781 C 75.292969 40.304688 76.8125 40.125 77.804688 39.742188 C 80.949219 38.527344 84.003906 37.078125 87.28125 35.636719 C 85.023438 34.152344 83.039062 32.773438 80.980469 31.515625 C 79.433594 30.570312 78.398438 31.046875 77.800781 32.734375 C 77.40625 33.835938 76.921875 34.90625 76.332031 36.34375 C 75.367188 33.058594 77.222656 28.027344 79.757812 26.789062 C 80.558594 26.394531 81.710938 26.679688 82.699219 26.722656 C 82.949219 26.734375 83.214844 26.976562 83.433594 27.160156 C 88.050781 31.050781 93.4375 32.519531 99.378906 32.242188 C 99.65625 32.226562 99.941406 32.289062 100.667969 32.359375 C 100.121094 33.886719 99.695312 35.277344 99.097656 36.59375 C 98.957031 36.902344 98.242188 37.066406 97.78125 37.089844 C 93.347656 37.292969 89.183594 38.339844 85.25 40.488281 C 82.582031 41.941406 79.761719 43.140625 76.941406 44.285156 C 73.328125 45.75 71.328125 44.8125 69.929688 41.214844 Z M 18.40625 43.058594 C 17.675781 44.621094 17.933594 45.691406 19.316406 46.398438 C 20.132812 46.816406 20.921875 47.332031 21.789062 47.589844 C 22.40625 47.773438 23.128906 47.601562 23.804688 47.585938 C 23.488281 46.925781 23.351562 46.019531 22.828125 45.644531 C 21.488281 44.679688 19.976562 43.953125 18.40625 43.058594 Z M 18.40625 43.058594 "/><path style=" stroke:none;fill-rule:nonzero;fill:#000000;fill-opacity:1;" d="M 227.894531 26.269531 C 228.320312 28.382812 228.71875 30.5 229.179688 32.605469 C 229.746094 35.1875 230.136719 37.839844 231.019531 40.308594 C 231.902344 42.78125 233.953125 43.890625 236.109375 43.738281 C 237.417969 43.648438 238.058594 43.0625 237.664062 41.703125 C 236.328125 37.109375 234.972656 32.519531 233.625 27.925781 C 233.046875 25.949219 233.609375 23.714844 235.335938 21.792969 C 236.894531 27.132812 238.566406 32.253906 239.839844 37.472656 C 240.527344 40.300781 239.488281 43.078125 238.171875 45.640625 C 236.355469 49.175781 232.5625 49.585938 229.984375 46.53125 C 229.46875 45.917969 229.078125 45.195312 228.453125 44.257812 C 227.054688 47.542969 224.898438 49.84375 221.320312 50.3125 C 217.15625 50.859375 215.582031 47.90625 214.335938 45.15625 C 212.671875 46.328125 211.167969 47.714844 209.402344 48.558594 C 206.601562 49.890625 204.726562 48.476562 204.84375 45.402344 C 204.992188 41.464844 208.527344 36.871094 212.339844 35.671875 C 212.550781 39.394531 209.734375 40.996094 206.777344 43.03125 C 207.78125 43.566406 208.386719 44.128906 209.050781 44.199219 C 211.566406 44.472656 213.691406 42.410156 213.480469 39.910156 C 213.21875 36.832031 213.078125 33.785156 214.382812 30.875 C 214.605469 30.378906 214.914062 29.917969 215.621094 29.507812 C 215.621094 30.617188 215.636719 31.726562 215.617188 32.832031 C 215.554688 35.914062 215.648438 38.972656 217 41.835938 C 218.964844 45.984375 222.753906 46.828125 226.398438 44.0625 C 227.894531 42.925781 227.507812 41.445312 227.34375 40.101562 C 227.023438 37.476562 226.585938 34.839844 225.914062 32.28125 C 225.296875 29.929688 226.414062 28.195312 227.21875 26.300781 C 227.441406 26.289062 227.667969 26.28125 227.894531 26.269531 Z M 227.894531 26.269531 "/><path style=" stroke:none;fill-rule:nonzero;fill:#000000;fill-opacity:1;" d="M 181.945312 2.378906 C 183.28125 3.941406 184.785156 5.265625 185.664062 6.921875 C 186.058594 7.664062 185.425781 9.195312 184.875 10.144531 C 184.183594 11.332031 184.261719 12.351562 184.625 13.554688 C 185.914062 17.804688 187.238281 22.046875 188.347656 26.339844 C 189.636719 31.335938 188.992188 36.195312 186.6875 40.804688 C 186.226562 41.726562 185.734375 42.789062 184.945312 43.347656 C 183.472656 44.390625 183.398438 45.675781 183.269531 47.304688 C 182.832031 52.804688 180.890625 57.6875 176.058594 60.824219 C 173.175781 62.695312 169.796875 62.570312 166.5 62.421875 C 165.582031 62.382812 164.671875 62.191406 163.667969 61.75 C 164.367188 61.535156 165.054688 61.261719 165.769531 61.113281 C 169.992188 60.25 173.832031 58.53125 177.402344 56.117188 C 181.699219 53.210938 181.867188 50.464844 179.894531 45.027344 C 178.890625 42.269531 178.871094 40.132812 180.824219 37.523438 C 180.964844 37.703125 181.160156 37.839844 181.203125 38.015625 C 181.492188 39.171875 181.742188 40.308594 183.339844 40.234375 C 184.933594 40.160156 186.195312 39.292969 186.351562 37.867188 C 186.597656 35.617188 186.699219 33.222656 186.195312 31.046875 C 185.078125 26.21875 183.445312 21.515625 182.226562 16.714844 C 181.5625 14.101562 181.605469 11.292969 180.785156 8.746094 C 180.136719 6.722656 180.355469 5.070312 181.230469 3.328125 C 181.375 3.039062 181.621094 2.804688 181.945312 2.378906 Z M 181.945312 2.378906 "/><path style=" stroke:none;fill-rule:nonzero;fill:#000000;fill-opacity:1;" d="M 91.503906 61.265625 C 92.648438 60.984375 93.792969 60.695312 94.941406 60.421875 C 99.144531 59.421875 102.898438 57.507812 106.332031 54.90625 C 109.535156 52.480469 109.445312 48.980469 107.636719 44.644531 C 106.460938 41.820312 107.011719 39.554688 108.515625 37.132812 C 108.730469 37.328125 108.925781 37.421875 108.957031 37.550781 C 109.257812 38.753906 109.472656 40 111.175781 39.878906 C 112.828125 39.761719 113.796875 38.835938 114.25 37.304688 C 115.074219 34.511719 114.382812 31.78125 113.679688 29.117188 C 112.289062 23.820312 110.675781 18.582031 109.277344 13.285156 C 108.679688 11.027344 108.15625 8.699219 108.054688 6.382812 C 107.992188 4.996094 108.816406 3.574219 109.242188 2.167969 C 109.433594 2.132812 109.628906 2.097656 109.820312 2.066406 C 110.53125 2.972656 111.214844 3.90625 111.964844 4.785156 C 113.917969 7.066406 114.007812 7.277344 112.578125 10.011719 C 112.050781 11.015625 112.003906 11.894531 112.3125 12.929688 C 113.621094 17.292969 115.023438 21.632812 116.140625 26.042969 C 117.441406 31.160156 116.753906 36.121094 114.277344 40.804688 C 114.089844 41.160156 113.96875 41.632812 113.671875 41.839844 C 110.960938 43.707031 111.234375 46.648438 110.730469 49.398438 C 109.914062 53.824219 108.007812 57.742188 104.082031 60.308594 C 101.125 62.246094 97.757812 62.21875 94.40625 62.082031 C 93.441406 62.042969 92.484375 61.839844 91.527344 61.710938 C 91.519531 61.5625 91.511719 61.414062 91.503906 61.265625 Z M 91.503906 61.265625 "/><path style=" stroke:none;fill-rule:nonzero;fill:#000000;fill-opacity:1;" d="M 197.238281 45.386719 C 195.953125 32.695312 192.203125 21.007812 190.035156 9.007812 C 189.574219 6.453125 189.976562 4.289062 191.664062 1.808594 C 192 3.449219 192.242188 4.695312 192.507812 5.941406 C 194.601562 15.679688 196.769531 25.40625 198.753906 35.167969 C 199.324219 37.976562 199.597656 40.910156 198.199219 43.65625 C 197.953125 44.140625 197.671875 44.605469 197.238281 45.386719 Z M 197.238281 45.386719 "/><path style=" stroke:none;fill-rule:nonzero;fill:#000000;fill-opacity:1;" d="M 119.550781 1.914062 C 120.164062 4.882812 120.75 7.855469 121.386719 10.816406 C 123.105469 18.8125 124.925781 26.789062 126.53125 34.804688 C 127.097656 37.617188 127.382812 40.542969 125.988281 43.292969 C 125.808594 43.652344 125.628906 44.015625 125.417969 44.359375 C 125.335938 44.488281 125.167969 44.5625 124.8125 44.832031 C 124.695312 43.023438 124.769531 41.359375 124.445312 39.78125 C 123.136719 33.34375 121.6875 26.9375 120.332031 20.515625 C 119.402344 16.117188 118.570312 11.699219 117.652344 7.300781 C 117.210938 5.191406 118.242188 3.566406 119.085938 1.867188 C 119.242188 1.882812 119.398438 1.898438 119.550781 1.914062 Z M 119.550781 1.914062 "/><path style=" stroke:none;fill-rule:nonzero;fill:#000000;fill-opacity:1;" d="M 246.402344 43.714844 C 243.917969 32.542969 241.441406 21.433594 238.988281 10.316406 C 238.617188 8.648438 239.417969 6.261719 240.84375 4.671875 C 241.441406 7.386719 242.007812 10 242.597656 12.605469 C 244.074219 19.121094 245.59375 25.628906 247.023438 32.15625 C 247.441406 34.066406 247.644531 36.023438 247.898438 37.96875 C 248.175781 40.132812 247.386719 42.007812 246.402344 43.714844 Z M 246.402344 43.714844 "/><g clip-rule="nonzero" clip-path="url(#b2ba334516)"><path style=" stroke:none;fill-rule:nonzero;fill:#000000;fill-opacity:1;" d="M 134.316406 16.28125 C 134.222656 14.796875 135.15625 13.976562 136.359375 13.441406 C 141.5 11.15625 146.566406 8.660156 151.839844 6.722656 C 157.96875 4.476562 164.28125 2.730469 170.515625 0.777344 C 170.769531 0.699219 171.054688 0.722656 171.5 0.679688 C 171.578125 2.714844 170.429688 4.035156 169.496094 5.445312 C 169.355469 5.402344 169.210938 5.355469 169.070312 5.3125 C 169.285156 4.601562 169.496094 3.894531 169.832031 2.78125 C 157.351562 5.914062 145.671875 10.46875 134.316406 16.28125 Z M 134.316406 16.28125 "/></g><g clip-rule="nonzero" clip-path="url(#2f98b7e784)"><path style=" stroke:none;fill-rule:nonzero;fill:#000000;fill-opacity:1;" d="M 57.574219 16.28125 C 57.523438 14.757812 58.46875 13.9375 59.679688 13.414062 C 65.898438 10.734375 72.0625 7.90625 78.382812 5.488281 C 83.613281 3.484375 89.03125 1.980469 94.746094 0.132812 C 94.871094 2.699219 93.683594 4.03125 92.769531 5.472656 C 92.632812 5.425781 92.496094 5.378906 92.359375 5.332031 C 92.566406 4.601562 92.769531 3.875 93.082031 2.78125 C 80.601562 5.921875 68.910156 10.488281 57.574219 16.28125 Z M 57.574219 16.28125 "/></g><path style=" stroke:none;fill-rule:nonzero;fill:#000000;fill-opacity:1;" d="M 71.257812 50.441406 C 72.390625 51.457031 73.390625 52.304688 74.324219 53.214844 C 74.519531 53.40625 74.625 53.878906 74.535156 54.144531 C 74.117188 55.4375 73.617188 56.703125 73.035156 58.28125 C 71.851562 57.324219 70.941406 56.582031 70.042969 55.855469 C 69.316406 56.820312 68.652344 57.761719 67.914062 58.636719 C 67.640625 58.960938 67.203125 59.296875 66.800781 59.347656 C 65.71875 59.488281 62.949219 56.3125 63.246094 55.230469 C 63.570312 54.027344 64.09375 52.878906 64.65625 51.371094 C 66.007812 52.625 67.109375 53.644531 68.40625 54.84375 C 69.40625 53.300781 70.285156 51.941406 71.257812 50.441406 Z M 71.257812 50.441406 "/><path style=" stroke:none;fill-rule:nonzero;fill:#000000;fill-opacity:1;" d="M 204.355469 29.539062 C 204.378906 26.164062 207.4375 26.34375 209.582031 25.183594 C 207.789062 24.414062 207.496094 23.152344 208.007812 21.550781 C 208.183594 21.011719 208.226562 20.429688 208.320312 19.867188 C 208.734375 17.375 210.46875 16.324219 212.851562 17.121094 C 215.714844 18.078125 216.378906 21.082031 213.9375 23.253906 C 211.707031 25.238281 209.71875 27.691406 206.492188 28.308594 C 205.765625 28.449219 205.132812 29.074219 204.355469 29.539062 Z M 211.066406 23.164062 C 211.296875 22.878906 211.527344 22.59375 211.757812 22.308594 C 211.210938 21.828125 210.703125 21.289062 210.089844 20.925781 C 209.984375 20.863281 209.4375 21.539062 209.097656 21.875 C 209.753906 22.304688 210.410156 22.734375 211.066406 23.164062 Z M 212.738281 19.28125 C 212.628906 19.359375 212.519531 19.433594 212.410156 19.507812 C 212.597656 20.394531 212.785156 21.277344 212.972656 22.160156 C 213.609375 21.78125 214.164062 21.1875 214.039062 20.828125 C 213.832031 20.234375 213.195312 19.789062 212.738281 19.28125 Z M 212.738281 19.28125 "/><path style=" stroke:none;fill-rule:nonzero;fill:#000000;fill-opacity:1;" d="M 463.511719 53.402344 C 463.246094 54.242188 463.078125 55.132812 462.699219 55.921875 C 461.734375 57.921875 460.929688 57.980469 459.460938 56.1875 C 458.863281 56.460938 458.261719 56.9375 457.632812 56.980469 C 456.667969 57.050781 455.496094 57.121094 454.75 56.652344 C 453.230469 55.695312 451.929688 55.78125 450.359375 56.453125 C 446.234375 58.222656 442.054688 59.859375 437.886719 61.53125 C 437.480469 61.695312 437.023438 61.738281 436.464844 61.523438 C 437.105469 61.214844 437.746094 60.910156 438.382812 60.59375 C 442.410156 58.585938 446.441406 56.59375 450.453125 54.5625 C 452.289062 53.628906 453.992188 53.398438 455.789062 54.765625 C 456.300781 55.152344 457.316406 55.101562 458.027344 54.9375 C 458.78125 54.769531 459.449219 54.222656 460.253906 53.785156 C 460.667969 54.328125 461.09375 54.890625 461.648438 55.621094 C 462.21875 54.714844 462.679688 53.980469 463.140625 53.246094 C 463.265625 53.296875 463.386719 53.347656 463.511719 53.402344 Z M 463.511719 53.402344 "/><path style=" stroke:none;fill-rule:nonzero;fill:#000000;fill-opacity:1;" d="M 18.746094 23.816406 C 18.261719 23.515625 17.890625 23.289062 17.03125 22.757812 C 16.449219 25.597656 15.917969 28.203125 15.285156 31.320312 C 14.082031 29.363281 13.15625 27.855469 12.050781 26.050781 C 11.679688 26.804688 11.597656 27.253906 11.332031 27.464844 C 10.714844 27.949219 9.816406 28.800781 9.382812 28.628906 C 8.675781 28.34375 7.796875 27.351562 7.8125 26.675781 C 7.832031 25.703125 8.359375 24.429688 9.105469 23.882812 C 9.742188 23.417969 11.164062 23.46875 11.933594 23.871094 C 13.09375 24.480469 13.992188 25.59375 14.992188 26.484375 C 15.472656 25.148438 15.875 23.730469 16.496094 22.414062 C 16.871094 21.621094 17.28125 20.394531 18.632812 21.117188 C 19.933594 21.816406 19.230469 22.734375 18.746094 23.816406 Z M 18.746094 23.816406 "/><path style=" stroke:none;fill-rule:nonzero;fill:#000000;fill-opacity:1;" d="M 257.171875 21.613281 C 258.015625 15.464844 258.578125 14.460938 261.328125 14.855469 C 260.867188 15.535156 260.5625 16.484375 260.117188 16.554688 C 258.730469 16.777344 258.648438 17.65625 258.652344 18.691406 C 258.664062 20.253906 258.769531 21.820312 258.6875 23.378906 C 258.644531 24.230469 258.300781 25.070312 258.066406 26.027344 C 256.484375 24.273438 255.125 22.761719 253.765625 21.253906 C 252.820312 22.375 252.125 23.203125 251.386719 24.078125 C 250.261719 22.660156 250.386719 20.921875 251.460938 19.835938 C 252.800781 18.476562 253.917969 18.808594 257.171875 21.613281 Z M 257.171875 21.613281 "/><path style=" stroke:none;fill-rule:nonzero;fill:#000000;fill-opacity:1;" d="M 262.566406 56.878906 C 262.132812 57.558594 261.855469 58.496094 261.234375 58.875 C 256.179688 61.960938 251.066406 64.945312 245.960938 67.953125 C 245.832031 68.027344 245.632812 67.984375 244.890625 68.035156 C 245.601562 67.085938 245.953125 66.210938 246.597656 65.820312 C 251.601562 62.765625 256.660156 59.804688 261.707031 56.816406 C 261.847656 56.734375 262.003906 56.675781 262.152344 56.605469 C 262.289062 56.699219 262.429688 56.789062 262.566406 56.878906 Z M 262.566406 56.878906 "/><path style=" stroke:none;fill-rule:nonzero;fill:#000000;fill-opacity:1;" d="M 149.382812 56.914062 C 148.933594 57.589844 148.636719 58.523438 148.007812 58.910156 C 143 61.960938 137.933594 64.914062 132.875 67.886719 C 132.703125 67.988281 132.464844 67.976562 131.921875 67.726562 C 132.378906 67.101562 132.699219 66.253906 133.308594 65.882812 C 138.363281 62.800781 143.472656 59.804688 148.566406 56.789062 C 148.703125 56.707031 148.871094 56.671875 149.027344 56.613281 C 149.144531 56.714844 149.265625 56.8125 149.382812 56.914062 Z M 149.382812 56.914062 "/><path style=" stroke:none;fill-rule:nonzero;fill:#000000;fill-opacity:1;" d="M 26.472656 56.894531 C 26.03125 57.574219 25.746094 58.511719 25.125 58.890625 C 20.117188 61.945312 15.050781 64.898438 9.992188 67.871094 C 9.816406 67.976562 9.578125 67.980469 9.015625 67.722656 C 9.511719 67.074219 9.871094 66.203125 10.523438 65.808594 C 15.480469 62.785156 20.492188 59.859375 25.488281 56.902344 C 25.675781 56.789062 25.871094 56.6875 26.0625 56.578125 C 26.199219 56.683594 26.335938 56.789062 26.472656 56.894531 Z M 26.472656 56.894531 "/><path style=" stroke:none;fill-rule:nonzero;fill:#000000;fill-opacity:1;" d="M 202.382812 66.265625 C 202.875 65.644531 203.242188 64.816406 203.878906 64.429688 C 208.839844 61.414062 213.847656 58.480469 218.847656 55.527344 C 219.066406 55.398438 219.3125 55.316406 219.859375 55.480469 C 219.429688 56.160156 219.15625 57.101562 218.539062 57.476562 C 213.484375 60.566406 208.367188 63.546875 203.265625 66.554688 C 203.132812 66.632812 202.933594 66.59375 202.765625 66.609375 C 202.636719 66.496094 202.507812 66.378906 202.382812 66.265625 Z M 202.382812 66.265625 "/><path style=" stroke:none;fill-rule:nonzero;fill:#000000;fill-opacity:1;" d="M 475.085938 65.757812 C 475.773438 64.921875 476.164062 64.105469 476.8125 63.710938 C 481.773438 60.695312 486.785156 57.765625 491.78125 54.808594 C 491.96875 54.699219 492.164062 54.597656 492.734375 54.734375 C 492.34375 55.402344 492.117188 56.347656 491.535156 56.699219 C 486.378906 59.835938 481.160156 62.863281 475.949219 65.914062 C 475.878906 65.957031 475.738281 65.882812 475.085938 65.757812 Z M 475.085938 65.757812 "/><path style=" stroke:none;fill-rule:nonzero;fill:#000000;fill-opacity:1;" d="M 166.300781 44.105469 C 165.125 44.625 164.078125 45.085938 163.105469 45.515625 C 162.902344 42.722656 165.292969 41.59375 169.347656 43.132812 C 168.644531 44.089844 168.011719 44.964844 167.359375 45.828125 C 167.261719 45.957031 167.019531 45.992188 166.945312 46.128906 C 166.480469 46.941406 166.046875 47.765625 165.601562 48.589844 C 166.675781 48.503906 167.804688 48.59375 168.800781 48.273438 C 169.410156 48.078125 169.816406 47.253906 170.414062 46.605469 C 170.53125 49.355469 167.777344 51.714844 165.460938 50.910156 C 164.890625 50.710938 164.160156 49.535156 164.292969 49.011719 C 164.695312 47.453125 165.488281 46 166.300781 44.105469 Z M 166.300781 44.105469 "/><path style=" stroke:none;fill-rule:nonzero;fill:#000000;fill-opacity:1;" d="M 99.816406 17.644531 C 100.644531 18.289062 101.132812 18.808594 101.734375 19.085938 C 102.132812 19.273438 102.691406 19.117188 103.179688 19.113281 C 103.167969 18.648438 103.289062 18.128906 103.121094 17.734375 C 102.519531 16.335938 102.484375 16.351562 103.328125 14.964844 C 105.015625 16.578125 105.210938 18.570312 103.855469 20.367188 C 102.882812 21.667969 101.804688 21.691406 99.550781 20.433594 C 99.152344 21.109375 98.878906 21.9375 98.3125 22.433594 C 97.730469 22.945312 96.746094 23.535156 96.15625 23.359375 C 95.445312 23.140625 94.5625 22.207031 94.472656 21.492188 C 94.3125 20.214844 94.691406 18.875 94.847656 17.558594 C 95.0625 17.570312 95.277344 17.585938 95.496094 17.597656 C 95.496094 18.230469 95.3125 18.941406 95.539062 19.476562 C 95.847656 20.191406 96.378906 20.914062 97.015625 21.316406 C 97.222656 21.445312 98.183594 20.65625 98.578125 20.125 C 99.074219 19.460938 99.34375 18.628906 99.816406 17.644531 Z M 99.816406 17.644531 "/><path style=" stroke:none;fill-rule:nonzero;fill:#000000;fill-opacity:1;" d="M 489.199219 50.019531 C 485.429688 47.253906 485.121094 45.910156 487.375 42.382812 C 491.082031 43.84375 491.757812 46.515625 489.199219 50.019531 Z M 489.199219 50.019531 "/><path style=" stroke:none;fill-rule:nonzero;fill:#000000;fill-opacity:1;" d="M 93.738281 44.214844 C 92.535156 46.269531 91.46875 48.089844 90.355469 49.992188 C 92.375 50.816406 93.144531 49.277344 94.234375 48.472656 C 94.507812 50.5625 92.097656 52.945312 90.25 52.3125 C 89.78125 52.152344 89.40625 51.105469 89.382812 50.449219 C 89.355469 49.75 89.726562 49.007812 90.039062 48.335938 C 90.355469 47.664062 90.808594 47.058594 90.996094 46.105469 C 90.183594 46.636719 89.371094 47.164062 88.609375 47.660156 C 88.605469 45.09375 90.148438 43.890625 93.738281 44.214844 Z M 93.738281 44.214844 "/><path style=" stroke:none;fill-rule:nonzero;fill:#000000;fill-opacity:1;" d="M 120.53125 53.648438 C 119.441406 52.71875 118.328125 51.964844 117.519531 50.96875 C 117.191406 50.570312 117.367188 49.570312 117.601562 48.953125 C 117.945312 48.035156 118.546875 47.214844 119.039062 46.355469 C 119.855469 46.957031 120.765625 47.46875 121.46875 48.179688 C 122.71875 49.445312 122.378906 51.296875 120.53125 53.648438 Z M 120.53125 53.648438 "/><path style=" stroke:none;fill-rule:nonzero;fill:#000000;fill-opacity:1;" d="M 176.367188 16.125 C 176.597656 15.195312 176.804688 14.351562 177.078125 13.25 C 178.28125 15.222656 178.441406 17.246094 177.273438 18.125 C 176.6875 18.566406 175.5 18.203125 174.515625 18.203125 C 173.78125 18.929688 172.878906 19.949219 171.835938 20.789062 C 171.488281 21.066406 170.617188 21.089844 170.261719 20.839844 C 169.921875 20.597656 169.726562 19.789062 169.847656 19.332031 C 170.164062 18.15625 170.6875 17.03125 171.128906 15.886719 C 171.300781 15.945312 171.46875 16.003906 171.640625 16.058594 C 171.429688 16.957031 171.21875 17.859375 170.960938 18.957031 C 173.503906 19.003906 173.667969 16.65625 174.945312 15.351562 C 175.417969 15.609375 175.882812 15.863281 176.367188 16.125 Z M 176.367188 16.125 "/><path style=" stroke:none;fill-rule:nonzero;fill:#000000;fill-opacity:1;" d="M 227.226562 14.371094 C 228.886719 17.074219 228.898438 17.074219 231.308594 13.941406 C 231.832031 15.382812 231.460938 17.128906 230.382812 17.882812 C 229.15625 18.734375 227.917969 18.675781 226.773438 17.632812 C 225.769531 18.550781 225.335938 20.550781 223.449219 19.507812 C 222.511719 18.988281 222.769531 16.542969 223.734375 15.339844 C 223.773438 15.363281 223.839844 15.375 223.851562 15.410156 C 224.160156 16.160156 224.464844 16.910156 224.769531 17.660156 C 225.34375 16.953125 225.933594 16.253906 226.492188 15.53125 C 226.734375 15.226562 226.914062 14.871094 227.226562 14.371094 Z M 227.226562 14.371094 "/><path style=" stroke:none;fill-rule:nonzero;fill:#000000;fill-opacity:1;" d="M 41.65625 5.648438 C 39.042969 3.773438 38.476562 3.867188 36.683594 6.1875 C 36.464844 4.847656 36.90625 3.273438 38.097656 2.757812 C 38.96875 2.382812 40.210938 2.429688 41.132812 2.746094 C 42 3.042969 43.382812 4.132812 43.273438 4.53125 C 42.992188 5.5625 42.1875 6.660156 41.28125 7.257812 C 40.144531 8.003906 38.695312 8.277344 37.382812 8.753906 C 37.300781 8.574219 37.214844 8.394531 37.132812 8.214844 C 38.574219 7.398438 40.019531 6.578125 41.65625 5.648438 Z M 41.65625 5.648438 "/><path style=" stroke:none;fill-rule:nonzero;fill:#000000;fill-opacity:1;" d="M 138.152344 21.449219 C 141.984375 22.910156 144 27.597656 142.058594 30.910156 C 141.933594 30.3125 141.835938 29.910156 141.773438 29.507812 C 141.414062 27.25 140.511719 25.28125 138.523438 24.042969 C 137.320312 23.292969 137.316406 22.53125 138.152344 21.449219 Z M 138.152344 21.449219 "/><path style=" stroke:none;fill-rule:nonzero;fill:#000000;fill-opacity:1;" d="M 130.28125 2.046875 C 129.867188 4 129.445312 5.953125 129.042969 7.910156 C 128.964844 8.300781 128.820312 8.769531 128.957031 9.097656 C 129.269531 9.855469 129.59375 10.734375 130.195312 11.1875 C 130.503906 11.417969 131.421875 10.839844 132.011719 10.644531 C 132.039062 12.203125 131.28125 13.371094 130.054688 13.433594 C 128.796875 13.496094 127.808594 12.390625 127.800781 10.679688 C 127.789062 7.597656 128.449219 4.664062 130.28125 2.046875 Z M 130.28125 2.046875 "/><path style=" stroke:none;fill-rule:nonzero;fill:#000000;fill-opacity:1;" d="M 49.585938 24.273438 C 49.121094 26.152344 48.550781 28.011719 48.238281 29.914062 C 48.101562 30.753906 48.199219 32.070312 48.71875 32.460938 C 49.234375 32.851562 50.421875 32.355469 51.347656 32.246094 C 51.304688 33.203125 50.964844 34.464844 49.4375 34.855469 C 48.234375 35.164062 47.027344 34.683594 46.9375 33.40625 C 46.695312 30.082031 47.519531 26.960938 49.585938 24.273438 Z M 49.585938 24.273438 "/><g clip-rule="nonzero" clip-path="url(#65a0d6e838)"><path style=" stroke:none;fill-rule:nonzero;fill:#000000;fill-opacity:1;" d="M 205.351562 0.4375 C 204.921875 2.328125 204.484375 4.214844 204.066406 6.105469 C 203.964844 6.550781 203.855469 7.011719 203.859375 7.464844 C 203.890625 9.550781 205.003906 10.167969 206.945312 9.058594 C 206.753906 10.441406 206.550781 11.757812 204.882812 11.765625 C 203.253906 11.769531 202.808594 10.5625 202.738281 9.160156 C 202.628906 6.882812 203.832031 2.195312 205.351562 0.4375 Z M 205.351562 0.4375 "/></g><path style=" stroke:none;fill-rule:nonzero;fill:#000000;fill-opacity:1;" d="M 462.867188 19.101562 C 463.835938 18.667969 464.804688 18.230469 465.773438 17.792969 C 463.960938 16.957031 462.378906 16.90625 461.046875 18.832031 C 460.984375 17.167969 461.3125 15.839844 462.699219 15.566406 C 464.144531 15.285156 465.699219 15.558594 467.203125 15.585938 C 467.136719 16.296875 467.332031 17.351562 466.945312 17.652344 C 465.824219 18.519531 464.46875 19.082031 463.203125 19.765625 C 463.089844 19.546875 462.980469 19.324219 462.867188 19.101562 Z M 462.867188 19.101562 "/><g clip-rule="nonzero" clip-path="url(#e2957a7004)"><path style=" stroke:none;fill-rule:nonzero;fill:#000000;fill-opacity:1;" d="M 223.703125 0.320312 C 226.484375 2.636719 227.964844 8.628906 226.191406 10.9375 C 225.9375 9.644531 225.824219 8.445312 225.449219 7.335938 C 224.953125 5.875 224.429688 4.363281 223.582031 3.097656 C 222.832031 1.976562 223.054688 1.238281 223.703125 0.320312 Z M 223.703125 0.320312 "/></g></g></svg>